<svg xmlns="http://www.w3.org/2000/svg" viewBox="0 0 32 32">
  <rect width="32" height="32" fill="#080808"/>
  <circle cx="16" cy="16" r="3" fill="#f0f0f0"/>
  <circle cx="16" cy="4" r="2" fill="#f0f0f0"/>
  <circle cx="16" cy="28" r="2" fill="#f0f0f0"/>
  <circle cx="4" cy="16" r="2" fill="#f0f0f0"/>
  <circle cx="28" cy="16" r="2" fill="#f0f0f0"/>
  <circle cx="6.5" cy="6.5" r="2" fill="#f0f0f0"/>
  <circle cx="25.5" cy="6.5" r="2" fill="#f0f0f0"/>
  <circle cx="6.5" cy="25.5" r="2" fill="#f0f0f0"/>
  <circle cx="25.5" cy="25.5" r="2" fill="#f0f0f0"/>
  <line x1="16" y1="13" x2="16" y2="6" stroke="#f0f0f0" stroke-width="1.2"/>
  <line x1="16" y1="19" x2="16" y2="26" stroke="#f0f0f0" stroke-width="1.2"/>
  <line x1="13" y1="16" x2="6" y2="16" stroke="#f0f0f0" stroke-width="1.2"/>
  <line x1="19" y1="16" x2="26" y2="16" stroke="#f0f0f0" stroke-width="1.2"/>
  <line x1="13.8" y1="13.8" x2="8.5" y2="8.5" stroke="#f0f0f0" stroke-width="1.2"/>
  <line x1="18.2" y1="18.2" x2="23.5" y2="23.5" stroke="#f0f0f0" stroke-width="1.2"/>
  <line x1="18.2" y1="13.8" x2="23.5" y2="8.5" stroke="#f0f0f0" stroke-width="1.2"/>
  <line x1="13.8" y1="18.2" x2="8.5" y2="23.5" stroke="#f0f0f0" stroke-width="1.2"/>
</svg>
